HIERARCHY
ROOT Pelvis
{
	OFFSET 0.000000 0.000000 0.000000
	CHANNELS 6 Xposition Yposition Zposition Xrotation Yrotation Zrotation
	JOINT LeftUpLeg_virtual
	{
		OFFSET 0.000000 0.000000 0.000000
		CHANNELS 3 Xrotation Yrotation Zrotation
		JOINT LeftUpLeg
		{
			OFFSET 18.735201 -5.666702 -4.541200
			CHANNELS 3 Xrotation Yrotation Zrotation
			JOINT LeftLeg
			{
				OFFSET -0.021200 -31.938179 0.493100
				CHANNELS 3 Xrotation Yrotation Zrotation
				JOINT LeftFoot
				{
					OFFSET 0.021200 -31.938179 -4.336299
					CHANNELS 3 Xrotation Yrotation Zrotation
					JOINT LeftToeBase
					{
						OFFSET 0.943001 -26.722000 15.023500
						CHANNELS 3 Xrotation Yrotation Zrotation
						End Site
						{
							OFFSET 0 0 0
						}
					}
				}
			}
		}
	}
	JOINT RightUpLeg_virtual
	{
		OFFSET 0.000000 0.000000 0.000000
		CHANNELS 3 Xrotation Yrotation Zrotation
		JOINT RightUpLeg
		{
			OFFSET -18.735201 -5.666702 -4.541200
			CHANNELS 3 Xrotation Yrotation Zrotation
			JOINT RightLeg
			{
				OFFSET 0.018946 -31.938133 0.493100
				CHANNELS 3 Xrotation Yrotation Zrotation
				JOINT RightFoot
				{
					OFFSET -0.018946 -31.938126 -4.336299
					CHANNELS 3 Xrotation Yrotation Zrotation
					JOINT RightToeBase
					{
						OFFSET -0.943001 -26.722004 15.023500
						CHANNELS 3 Xrotation Yrotation Zrotation
						End Site
						{
							OFFSET 0 0 0
						}
					}
				}
			}
		}
	}
	JOINT Hips_virtual
	{
		OFFSET 0.000000 0.000000 0.000000
		CHANNELS 3 Xrotation Yrotation Zrotation
		JOINT Hips
		{
			OFFSET -0.000000 -0.000000 -0.000000
			CHANNELS 3 Xrotation Yrotation Zrotation
			JOINT Spine
			{
				OFFSET 0.000000 10.199997 -0.299500
				CHANNELS 3 Xrotation Yrotation Zrotation
				JOINT Spine1
				{
					OFFSET 0.000000 11.900002 -1.516600
					CHANNELS 3 Xrotation Yrotation Zrotation
					JOINT Spine2
					{
						OFFSET 0.000000 13.600006 -2.842500
						CHANNELS 3 Xrotation Yrotation Zrotation
						JOINT Neck_virtual
						{
							OFFSET 0.000000 0.000000 0.000000
							CHANNELS 3 Xrotation Yrotation Zrotation
							JOINT Neck
							{
								OFFSET 0.000000 9.624100 -2.890100
								CHANNELS 3 Xrotation Yrotation Zrotation
								JOINT Head
								{
									OFFSET 0.000000 14.068802 -1.351900
									CHANNELS 3 Xrotation Yrotation Zrotation
									End Site
									{
										OFFSET 0 0 0
									}
								}
							}
						}
						JOINT LeftShoulder_virtual
						{
							OFFSET 0.000000 0.000000 0.000000
							CHANNELS 3 Xrotation Yrotation Zrotation
							JOINT LeftShoulder
							{
								OFFSET 15.263000 10.923401 -0.547700
								CHANNELS 3 Xrotation Yrotation Zrotation
								JOINT LeftArm
								{
									OFFSET 25.438599 -2.830597 -13.032500
									CHANNELS 3 Xrotation Yrotation Zrotation
									JOINT LeftForeArm
									{
										OFFSET 29.960503 0.000000 0.000000
										CHANNELS 3 Xrotation Yrotation Zrotation
										JOINT LeftHand
										{
											OFFSET 27.849251 0.000000 0.000000
											CHANNELS 3 Xrotation Yrotation Zrotation
											End Site
											{
												OFFSET 0 0 0
											}
										}
									}
								}
							}
						}
						JOINT RightShoulder_virtual
						{
							OFFSET 0.000000 0.000000 0.000000
							CHANNELS 3 Xrotation Yrotation Zrotation
							JOINT RightShoulder
							{
								OFFSET -15.263000 10.923401 -0.547700
								CHANNELS 3 Xrotation Yrotation Zrotation
								JOINT RightArm
								{
									OFFSET -25.438599 -2.830597 -13.032500
									CHANNELS 3 Xrotation Yrotation Zrotation
									JOINT RightForeArm
									{
										OFFSET -29.960503 0.000000 0.000000
										CHANNELS 3 Xrotation Yrotation Zrotation
										JOINT RightHand
										{
											OFFSET -27.849251 0.000000 0.000000
											CHANNELS 3 Xrotation Yrotation Zrotation
											End Site
											{
												OFFSET 0 0 0
											}
										}
									}
								}
							}
						}
					}
				}
			}
		}
	}
}
MOTION
Frames: 4
Frame Time: 0.03333333
2.806658 93.385780 13.131748 0.000000 0.000000 0.000000 10.992179 9.022019 -5.164602 -30.289533 15.454620 14.160691 36.012569 -15.895993 2.072063 -14.986410 -16.098901 -12.616653 0.000000 0.000000 0.000000 6.735313 46.696955 1.803003 -19.517318 7.733024 -7.390336 34.944887 8.979959 -6.340737 -16.325183 8.382550 6.505568 0.000000 0.000000 0.000000 0.857680 4.431879 0.549601 7.537349 32.740631 -6.130240 7.228044 0.811157 -0.355484 0.543487 0.605452 0.750210 0.000000 0.000000 0.000000 0.997126 3.529446 0.435611 -0.330157 3.723329 -0.791620 0.000000 0.000000 0.000000 2.181428 0.310382 2.051365 0.883344 -0.162996 0.966395 -46.935988 -8.139816 -28.559519 -10.944162 -52.502428 -3.178547 0.000000 0.000000 0.000000 4.156085 1.030561 1.835928 4.640866 10.648029 8.961280 17.536041 3.709893 51.487960 9.336793 51.853628 0.042646 0.000000 0.000000 0.000000 
2.300644 93.491791 13.543364 0.000000 0.000000 0.000000 11.156346 10.971998 -5.285712 -30.552013 15.945821 14.516483 36.078302 -16.040037 1.792659 -14.992608 -16.083851 -13.141834 0.000000 0.000000 0.000000 7.033456 47.594121 1.990885 -18.917807 7.943933 -6.947952 33.718260 7.913089 -6.103212 -17.030344 7.176145 6.009276 0.000000 0.000000 0.000000 0.926951 5.611674 0.498802 7.322807 34.142340 -6.328292 7.273294 0.731932 -0.377966 0.588131 0.545510 0.741704 0.000000 0.000000 0.000000 0.895839 3.367468 0.485383 -0.364982 3.581878 -0.777794 0.000000 0.000000 0.000000 2.145196 0.098062 2.113669 0.852110 -1.274320 1.149871 -47.097474 -8.536442 -28.719870 -10.977362 -52.760770 -3.296286 0.000000 0.000000 0.000000 4.090415 0.968645 1.899549 4.575784 10.504475 9.083843 16.999868 3.205919 51.570797 8.931362 50.788098 0.326325 0.000000 0.000000 0.000000 
1.805143 93.596039 13.867043 0.000000 0.000000 0.000000 11.318188 13.174988 -5.414272 -30.821686 16.484564 14.904960 36.100593 -15.834895 1.552269 -14.918492 -15.778466 -13.367289 0.000000 0.000000 0.000000 7.317648 48.448055 2.152558 -18.366841 8.149219 -6.546454 32.638827 6.886505 -5.903981 -17.638395 6.038259 5.517018 0.000000 0.000000 0.000000 0.979894 6.742347 0.452441 7.031753 35.492511 -6.481198 7.321424 0.657952 -0.399960 0.634286 0.488867 0.733740 0.000000 0.000000 0.000000 0.791436 3.219631 0.537854 -0.402528 3.450913 -0.762394 0.000000 0.000000 0.000000 2.116977 -0.102869 2.177716 0.820911 -2.333322 1.335571 -47.233425 -8.899519 -28.875513 -10.996215 -52.988082 -3.405581 0.000000 0.000000 0.000000 4.022437 0.912253 1.967533 4.497313 10.372353 9.222908 16.403017 2.608935 51.626162 8.496949 49.695125 0.597612 0.000000 0.000000 0.000000 
1.325100 93.696953 14.098880 0.000000 0.000000 0.000000 11.488992 15.568451 -5.548745 -31.072791 17.059437 15.315062 36.087987 -15.272853 1.371894 -14.753871 -15.187219 -13.259912 0.000000 0.000000 0.000000 7.586662 49.268207 2.281745 -17.870068 8.352496 -6.192067 31.724648 5.939453 -5.738779 -18.142772 5.002923 5.057803 0.000000 0.000000 0.000000 1.020174 7.811254 0.410685 6.679214 36.776150 -6.595053 7.375845 0.588018 -0.419810 0.683346 0.435247 0.727263 0.000000 0.000000 0.000000 0.688744 3.086532 0.592917 -0.440875 3.331123 -0.745483 0.000000 0.000000 0.000000 2.098516 -0.291340 2.243669 0.791163 -3.331708 1.523633 -47.333826 -9.229495 -29.021532 -10.994929 -53.187243 -3.500763 0.000000 0.000000 0.000000 3.954620 0.860326 2.039567 4.408131 10.248718 9.377672 15.742616 1.937861 51.653606 8.039459 48.609227 0.850495 0.000000 0.000000 0.000000 
